<svg xmlns="http://www.w3.org/2000/svg" enable-background="new 0 0 64 64" viewBox="0 0 64 64" id="couple"><path fill="#fcd1b4" d="M31,14v9c0,2.21-1.79,4-4,4h-4l-2,5l-0.23,0.49l-7.73-3.6L15,23h2l1-5l0.03-0.09C18.18,17.97,18.34,18,18.5,18c0.83,0,1.5-0.67,1.5-1.5v-1c0-0.16-0.03-0.32-0.09-0.47L20,15v-2l-0.56-0.68C19.22,11.67,19.7,11,20.39,11H25l0.12-0.13C26.44,12.12,28.32,13,31,13v0.5V14z"></path><polygon fill="#ed907a" points="23 27 21 32 20.77 32.49 17.59 31.01 20 27"></polygon><path fill="#686868" d="M25.12,10.87L25,11h-4.61c-0.69,0-1.17,0.67-0.95,1.32L20,13v2l-0.09,0.03C19.44,14.24,19,14,18.5,14c-0.83,0-1.5,0.67-1.5,1.5v1c0,0.67,0.43,1.23,1.03,1.41L18,18l-1,5h-2l-2-8V9c0-4.42,3.58-8,8-8h2h2c4.42,0,8,3.58,8,8v6l-2-2C28.32,13,26.44,12.12,25.12,10.87z"></path><path fill="#494848" d="M33,8.939v5.636l-1.879-1.879c-0.329,0-0.639-0.009-0.939-0.038v-2.78c0-4.152-3.363-7.514-7.514-7.514h-3.757c-0.31,0-0.611,0.019-0.911,0.056c1.099-0.629,2.367-0.996,3.729-0.996h3.757C29.637,1.425,33,4.788,33,8.939z"></path><path fill="#868686" d="M26.62,1.16c-0.67,1.83-3.46,3.75-7.11,4.71c-2.23,0.59-4.37,0.7-6.03,0.4C14.59,3.19,17.54,1,21,1h4C25.56,1,26.1,1.06,26.62,1.16z"></path><path fill="#494848" d="M27.99,12.55c-1.17-0.37-2.11-0.96-2.87-1.68L25,11h-4.61c-0.69,0-1.17,0.67-0.95,1.32L20,13v2l-0.09,0.03C19.44,14.24,19,14,18.5,14c-0.83,0-1.5,0.67-1.5,1.5v1c0,0.67,0.43,1.23,1.03,1.41L18,18l-1,5h-2l-0.78-3.12l0.77-3.85c0.65-3.21,2.61-5.99,5.4-7.67l0.19-0.11C20.84,8.1,21,7.81,21,7.51c0-0.68,0.72-1.1,1.31-0.76l3.28,1.87C27.01,9.43,27.92,10.92,27.99,12.55z"></path><path fill="#ed907a" d="M31,13v1h-5.5c-1.381,0-2.5,1.119-2.5,2.5v0c0,1.381-1.119,2.5-2.5,2.5h-2.7l0.2-1l0.03-0.09C18.18,17.97,18.34,18,18.5,18c0.83,0,1.5-0.67,1.5-1.5v-1c0-0.16-0.03-0.32-0.09-0.47L20,15v-2l-0.56-0.68C19.22,11.67,19.7,11,20.39,11H25l0.12-0.13C26.44,12.12,28.32,13,31,13z"></path><path fill="#fcd1b4" d="M35,21.5c0,0.83,0.67,1.5,1.5,1.5h3c0.83,0,1.5,0.67,1.5,1.5s0.67,1.5,1.5,1.5h1c0.83,0,1.5,0.67,1.5,1.5V34h-2l-0.11,0.04l-1.18-3.14c-0.29-0.78-1.34-0.89-1.78-0.18l-2.3,3.67L37,34c-2.21,0-4-1.79-4-4v-3v-4v-1c0-1.95,0.7-3.73,1.86-5.12L35,17V21.5z"></path><path fill="#ed907a" d="M44.87,26.91c-1.93,0.8-4.87,0.42-7.62-1.17c-1.97-1.14-3.46-2.67-4.23-4.22c0.1-1.76,0.78-3.37,1.84-4.64L35,17v4.5c0,0.83,0.67,1.5,1.5,1.5h3c0.83,0,1.5,0.67,1.5,1.5c0,0.83,0.67,1.5,1.5,1.5h1C44.12,26,44.65,26.37,44.87,26.91z"></path><path fill="#ffd56c" d="M63,42.23V52l-3-5l-3,5c0-2.47-2.45-7.38-3.68-10.14c-0.05-0.11-0.1-0.21-0.14-0.31c-0.34-0.77-0.89-1.41-1.57-1.86C50.93,39.25,50.12,39,49.27,39c-0.09,0-0.18,0-0.27-0.01c-2.23-0.14-4-1.99-4-4.26V34v-6.5c0-0.83-0.67-1.5-1.5-1.5h-1c-0.83,0-1.5-0.67-1.5-1.5S40.33,23,39.5,23h-3c-0.83,0-1.5-0.67-1.5-1.5V17l-0.14-0.12C36.32,15.12,38.53,14,41,14h2c4.42,0,8,3.58,8,8v5.06c0,0.61,0.18,1.22,0.5,1.73l5.55,8.72c0.59,0.93,1.62,1.49,2.72,1.49C61.55,39,63,40.45,63,42.23z"></path><path fill="#ffe6a7" d="M50.31,18.74c-1.26,0.39-2.74,0.47-4.27,0.17c-3.14-0.63-5.5-2.65-5.91-4.86C40.41,14.02,40.7,14,41,14h2C46.26,14,49.06,15.95,50.31,18.74z"></path><path fill="#f2a24c" d="M59.58,47.7L57,52c0-2.47-2.45-7.38-3.68-10.14c-0.05-0.11-0.1-0.21-0.14-0.31c-0.34-0.77-0.89-1.41-1.57-1.86C50.93,39.25,50.12,39,49.27,39c-0.09,0-0.18,0-0.27-0.01c-2.23-0.14-4-1.99-4-4.26V27.5c0-0.83-0.67-1.5-1.5-1.5h-1c-0.83,0-1.5-0.67-1.5-1.5c0-0.83-0.67-1.5-1.5-1.5h-3c-0.83,0-1.5-0.67-1.5-1.5V17l-0.14-0.12c0.87-1.05,2.01-1.87,3.32-2.37c-0.1,0.12-0.21,0.24-0.32,0.37L38,15v4.5c0,0.83,0.67,1.5,1.5,1.5h3c0.83,0,1.5,0.67,1.5,1.5c0,0.83,0.67,1.5,1.5,1.5h1c0.83,0,1.5,0.67,1.5,1.5v7.23c0,2.27,1.77,4.12,4,4.26C52.09,37,52.18,37,52.27,37c0.85,0,1.66,0.25,2.34,0.69c0.68,0.45,1.23,1.09,1.57,1.86c0.04,0.1,0.09,0.2,0.14,0.31C57.24,41.91,58.83,45.16,59.58,47.7z"></path><path fill="#f42b4a" d="M7.41 16.83c3.86.43 1.05 7.39 1.05 7.39s-6.96 2.81-7.39-1.05C.72 20 4.59 20.35 4.59 20.35S4.24 16.47 7.41 16.83zM60 16c0 0 3.32.11 3 3-.39 3.52-7 1-7 1s-2.52-6.61 1-7C59.89 12.68 60 16 60 16z"></path><path fill="#c03" d="M63,19c-0.39,3.52-7,1-7,1s-0.06-0.17-0.16-0.45c1.98,0.47,4.9,0.75,5.16-1.55c0.1-0.88-0.14-1.5-0.53-1.94C61.38,16.21,63.24,16.8,63,19z"></path><path fill="#f42b4a" d="M56.39,2.42C59.88,6.78,49.96,11,49.96,11s-9.92-4.22-6.43-8.58c2.86-3.57,6.43,0.72,6.43,0.72S53.53-1.15,56.39,2.42z"></path><path fill="#c03" d="M49.96,11c0,0-0.44-0.19-1.11-0.52c2.61-1.62,5.74-4.31,3.54-7.06c-0.48-0.6-0.98-0.98-1.48-1.19c1.25-1.03,3.53-2.24,5.48,0.19C59.88,6.78,49.96,11,49.96,11z"></path><path fill="#f42b4a" d="M53.49,48.35L55,63h-8l-3.05-13.27c-0.07-0.32-0.1-0.64-0.1-0.96c0-2.25,1.59-4.26,3.88-4.72c2.03-0.4,3.98,0.52,5.02,2.13C53.15,46.81,53.42,47.54,53.49,48.35z"></path><path fill="#c03" d="M55,63h-3.1l-1.41-13.65c-0.07-0.81-0.34-1.54-0.74-2.17c-0.87-1.34-2.36-2.2-4.01-2.22c0.57-0.44,1.24-0.76,1.99-0.91c2.03-0.4,3.98,0.52,5.02,2.13c0.4,0.63,0.67,1.36,0.74,2.17L55,63z"></path><path fill="#f42b4a" d="M53,42v4l-0.25,0.18c-1.04-1.61-2.99-2.53-5.02-2.13c-2.29,0.46-3.88,2.47-3.88,4.72c0,0.32,0.03,0.64,0.1,0.96L47,63H37v-3l-3-4l-0.26-0.14L41,42l1.59-2.64c0.09-0.14,0.17-0.29,0.24-0.44L43,39h6v-0.01C49.09,39,49.18,39,49.27,39c0.85,0,1.66,0.25,2.34,0.69c0.68,0.45,1.23,1.09,1.57,1.86c0.04,0.1,0.09,0.2,0.14,0.31L53,42z"></path><path fill="#c03" d="M53.32 41.86L53 42v4l-.25.18c-.44-.68-1.05-1.24-1.75-1.63C50.98 42.03 48.94 40 46.42 40H42.2l.39-.64c.09-.14.17-.29.24-.44L43 39h6v-.01C49.09 39 49.18 39 49.27 39c.85 0 1.66.25 2.34.69.68.45 1.23 1.09 1.57 1.86C53.22 41.65 53.27 41.75 53.32 41.86zM37 63v-3l-3-4-.26-.14L39 45.82v7.26c0 4.25 3.34 7.71 7.54 7.91L47 63H37z"></path><path fill="#64ddf3" d="M13.04,28.89l7.73,3.6L24,34l-13.23-1.76c-0.51-0.07-0.95-0.32-1.26-0.68C9.19,31.19,9,30.72,9,30.21c0-1.5,1.55-2.49,2.91-1.85L13.04,28.89z"></path><path fill="#3bb0ee" d="M24,34l-13.23-1.76c-0.51-0.07-0.95-0.32-1.26-0.68C9.19,31.19,9,30.72,9,30.21c0-0.26,0.05-0.51,0.14-0.73c0.06,0.16,0.16,0.31,0.28,0.44c0.31,0.36,0.75,0.61,1.26,0.68l8.44,1.12l1.65,0.77L24,34z"></path><path fill="#64ddf3" d="M28.1,61.48c0.99,0.79,2.44,0.48,3.03-0.63L33,57.28V63H12l-1-11L5.87,39.16c-0.54-1.33-0.31-2.86,0.59-3.98L9,32l0.51-0.44c0.31,0.36,0.75,0.61,1.26,0.68L24,34l7,14l0.16,0.08l-2.11,3.95L29,52l-2-2l-0.48-0.62L27,49l-4.31-9.24c-1.44-3.08-5.23-4.24-8.14-2.49c-1.78,1.07-2.79,2.96-2.79,4.92c0,0.86,0.2,1.74,0.61,2.56L18,56l1.73-1.35L20,55L28.1,61.48z"></path><path fill="#3bb0ee" d="M31.16,48.08l-1.05,1.97L30,50l-6.038-12.076c-0.602-1.203-1.761-2.03-3.094-2.207L9.77,34.24c-0.51-0.07-0.95-0.32-1.26-0.68L8,34l-2.34,2.93c0.11-0.63,0.38-1.23,0.8-1.75L9,32l0.51-0.44c0.31,0.36,0.75,0.61,1.26,0.68L24,34l7,14L31.16,48.08z"></path><path fill="#3bb0ee" d="M33,61v2H12l-1-11L5.87,39.16c-0.54-1.33-0.31-2.86,0.59-3.98L9,32l0.51-0.44c0.04,0.05,0.09,0.1,0.14,0.13l-1.19,1.49c-0.9,1.12-1.13,2.65-0.59,3.98l4.801,12.017c0.218,0.546,0.356,1.12,0.409,1.705l0.417,4.588C13.782,58.602,16.408,61,19.552,61H27.5l0.6,0.48c0.94,0.75,2.31,0.51,2.94-0.48H33z"></path><path fill="#64ddf3" d="M22.69,39.76L27,49l-0.48,0.38l-6.79,5.27L18,56l-5.63-11.25c-0.41-0.82-0.61-1.7-0.61-2.56c0-1.96,1.01-3.85,2.79-4.92C17.46,35.52,21.25,36.68,22.69,39.76z"></path><path fill="#3bb0ee" d="M27,49l-0.48,0.38l-6.79,5.27L18,56l-5.63-11.25c-0.41-0.82-0.61-1.7-0.61-2.56c0-1.27,0.43-2.51,1.21-3.52c0.09,0.37,0.22,0.73,0.4,1.08l4.648,9.288c0.508,1.015,1.817,1.31,2.712,0.612h0l4.83-3.75L27,49z"></path><path fill="#fcd1b4" d="M45 34.73c0 2.27 1.77 4.12 4 4.26V39h-6l-.17-.08c.67-1.4.75-3.03.21-4.49l-.15-.39L43 34h2V34.73zM36.63 36L36 37v2l-.72 1.34L33.2 37.6C32.71 36.94 33.18 36 34 36H36.63z"></path><path fill="#fcd1b4" d="M36.63,36l1-1.61l2.3-3.67c0.44-0.71,1.49-0.6,1.78,0.18l1.18,3.14l0.15,0.39c0.54,1.46,0.46,3.09-0.21,4.49c-0.07,0.15-0.15,0.3-0.24,0.44L41,42l-7.26,13.86L33,57.28l-1.87,3.57c-0.59,1.11-2.04,1.42-3.03,0.63L20,55l-0.27-0.35l6.79-5.27L27,50l2,2l0.05,0.03l2.11-3.95l4.12-7.74L36,39v-2L36.63,36z"></path><path fill="#ed907a" d="M42.83,38.92c-0.07,0.15-0.15,0.3-0.24,0.44L41,42l-7.26,13.86L33,57.28l-1.87,3.57c-0.59,1.11-2.04,1.42-3.03,0.63L20,55l-0.27-0.35l1.31-1.02l6.06,4.85c0.99,0.79,2.44,0.48,3.03-0.63L32,54.28l0.74-1.42L40,39l1.59-2.64c0.09-0.14,0.17-0.29,0.24-0.44c0.5-1.05,0.67-2.23,0.5-3.37l0.56,1.49l0.15,0.39C43.58,35.89,43.5,37.52,42.83,38.92z"></path><path fill="#fcd1b4" d="M18.5,14c0.5,0,0.94,0.24,1.41,1.03C19.97,15.18,20,15.34,20,15.5v1c0,0.83-0.67,1.5-1.5,1.5c-0.16,0-0.32-0.03-0.47-0.09C17.43,17.73,17,17.17,17,16.5v-1C17,14.67,17.67,14,18.5,14z"></path><path fill="#fcfcfc" d="M19 3.992c-.285-.261-.725-.282-1.008 0l-.21.21c-.264.264-.284.748 0 1.008.285.261.725.282 1.008 0L19 5C19.264 4.736 19.284 4.252 19 3.992zM17.447 5.714c-.216-.216-.552.119-.336.336C17.327 6.266 17.663 5.93 17.447 5.714zM40 15.992c-.285-.261-.725-.282-1.008 0l-.21.21c-.264.264-.284.748 0 1.008.285.261.725.282 1.008 0L40 17C40.264 16.736 40.284 16.252 40 15.992zM38.447 17.714c-.216-.216-.552.119-.336.336C38.327 18.266 38.663 17.93 38.447 17.714z"></path><g><path fill="#fcfcfc" d="M47 2.992c-.285-.261-.725-.282-1.008 0l-.21.21c-.264.264-.284.748 0 1.008.285.261.725.282 1.008 0L47 4C47.264 3.736 47.284 3.252 47 2.992zM45.447 4.714c-.216-.216-.552.119-.336.336C45.327 5.266 45.663 4.93 45.447 4.714z"></path></g><g><path fill="#333" d="M9.391 24.596c.2-.497 1.917-4.925.495-7.306-.5-.837-1.318-1.341-2.368-1.458-1.424-.159-2.296.372-2.777.846-.791.775-1.055 1.873-1.134 2.687-.813.079-1.911.343-2.687 1.134-.474.482-1.004 1.355-.846 2.777.116 1.05.621 1.869 1.458 2.369.686.409 1.541.559 2.424.559 2.181 0 4.527-.911 4.881-1.054C9.089 25.048 9.289 24.848 9.391 24.596zM7.688 23.445c-1.435.509-4.035 1.135-5.131.482-.198-.119-.435-.325-.495-.873-.086-.774.191-1.06.282-1.153.456-.469 1.398-.566 1.915-.566.097 0 .179.004.239.009.292.03.588-.079.798-.289s.315-.502.289-.798c-.028-.312-.018-1.591.555-2.151.093-.092.373-.377 1.156-.285.547.061.753.296.872.495C8.804 19.378 8.256 21.864 7.688 23.445zM55.644 20.935c.336.128 2.532.934 4.59.934.88 0 1.735-.147 2.408-.559.777-.475 1.245-1.235 1.353-2.199.117-1.058-.146-1.992-.76-2.703-.688-.796-1.655-1.142-2.35-1.292-.15-.694-.496-1.662-1.292-2.35-.711-.613-1.641-.873-2.703-.76-.964.107-1.725.575-2.199 1.353-1.372 2.247.192 6.519.375 6.998C55.167 20.622 55.378 20.833 55.644 20.935zM56.397 14.399c.106-.173.273-.356.713-.405.502-.058.884.036 1.169.28.548.469.707 1.433.722 1.76.018.521.438.941.96.965.332.015 1.296.174 1.765.722.244.285.336.668.28 1.169-.049.439-.232.606-.405.713-.926.564-3.229.146-4.818-.385C56.252 17.63 55.832 15.324 56.397 14.399zM49.568 11.92C49.693 11.974 49.827 12 49.96 12s.267-.026.392-.08c.688-.292 6.743-2.961 7.665-6.617.308-1.221.017-2.433-.842-3.506C55.999.327 54.709.009 53.834 0c-.014 0-.026 0-.039 0-1.602 0-3.01.987-3.835 1.722-.832-.74-2.22-1.76-3.873-1.722-.875.009-2.165.327-3.341 1.797-.858 1.073-1.149 2.286-.842 3.506C42.825 8.959 48.881 11.628 49.568 11.92zM44.309 3.047C44.865 2.351 45.452 2.008 46.103 2c.008 0 .016 0 .023 0 1.287 0 2.648 1.281 3.065 1.776.19.229.472.36.769.36s.578-.132.769-.359C50.743 3.759 52.253 2 53.794 2c.006 0 .013 0 .02 0 .652.006 1.241.349 1.799 1.047.473.59.62 1.15.466 1.766-.534 2.124-4.287 4.246-6.117 5.093-1.766-.821-5.586-2.98-6.117-5.091C43.688 4.198 43.836 3.637 44.309 3.047zM29 19v-2c0-.553-.447-1-1-1s-1 .447-1 1v2c0 .553.447 1 1 1S29 19.553 29 19zM36 24c-.553 0-1 .447-1 1v2c0 .553.447 1 1 1s1-.447 1-1v-2C37 24.447 36.553 24 36 24zM16 15.5v1c0 1.379 1.121 2.5 2.5 2.5s2.5-1.121 2.5-2.5v-1c0-.114-.019-.223-.034-.333C20.976 15.111 21 15.059 21 15v-2c0-.231-.08-.456-.228-.635L20.473 12H22c.553 0 1-.447 1-1s-.447-1-1-1h-1.612c-.642 0-1.248.311-1.623.831-.375.52-.478 1.193-.274 1.802.038.116.098.224.176.318l.059.072C18.649 13.016 18.577 13 18.5 13 17.121 13 16 14.121 16 15.5zM19 16.5c0 .275-.225.5-.5.5S18 16.775 18 16.5v-1c0-.275.225-.5.5-.5s.5.225.5.5V16.5z"></path><path fill="#333" d="M59.772,38c-0.766,0-1.469-0.386-1.88-1.032l-5.545-8.713C52.12,27.898,52,27.484,52,27.06V22c0-4.963-4.037-9-9-9h-2c-4.463,0-8.166,3.267-8.87,7.534C32.054,20.675,32,20.828,32,21v-5.586l0.293,0.293C32.484,15.898,32.74,16,33,16c0.129,0,0.259-0.024,0.383-0.076C33.757,15.77,34,15.404,34,15V9c0-4.963-4.037-9-9-9h-2h-2c-4.963,0-9,4.037-9,9v6c0,0.082,0.01,0.163,0.03,0.242l2,8C14.142,23.688,14.541,24,15,24h2c0.477,0,0.887-0.336,0.98-0.804l0.4-2c0.108-0.542-0.242-1.068-0.784-1.177c-0.542-0.11-1.069,0.242-1.177,0.784L16.181,22h-0.399L14,14.877V9c0-3.859,3.141-7,7-7h2h2c3.859,0,7,3.141,7,7v3.586l-0.292-0.292C31.527,12.113,31.277,12,31,12c-5.373,0-7.209-3.903-7.803-7.179c-0.099-0.542-0.611-0.904-1.163-0.806c-0.543,0.099-0.903,0.619-0.806,1.163c0.951,5.238,4.123,8.39,8.771,8.78V14v9c0,1.654-1.346,3-3,3h-7c-0.553,0-1,0.447-1,1s0.447,1,1,1h1.523l-1.261,3.152l-6-2.8c0.005-0.013,0.014-0.023,0.019-0.036l0.667-2c0.175-0.524-0.108-1.09-0.632-1.265c-0.528-0.176-1.09,0.108-1.265,0.632l-0.607,1.82l-0.113-0.053c-0.948-0.443-2.041-0.371-2.923,0.19C8.527,28.204,8,29.164,8,30.21c0,0.407,0.086,0.794,0.234,1.152c-0.004,0.005-0.011,0.007-0.015,0.013l-2.544,3.181c-1.122,1.403-1.404,3.312-0.738,4.979l5.081,12.701l0.986,10.854C11.051,63.605,11.482,64,12,64h13c0.553,0,1-0.447,1-1s-0.447-1-1-1H12.913l-0.917-10.091c-0.009-0.096-0.031-0.19-0.067-0.28L6.794,38.793c-0.4-1.001-0.23-2.146,0.443-2.988l2.343-2.928c0.322,0.178,0.68,0.3,1.062,0.351l12.7,1.694l5.263,10.526C28.781,45.798,29.134,46,29.501,46c0.15,0,0.303-0.034,0.446-0.105c0.494-0.247,0.694-0.848,0.447-1.342l-5.5-11c-0.015-0.029-0.041-0.047-0.058-0.074c-0.046-0.074-0.096-0.145-0.161-0.206c-0.039-0.036-0.083-0.06-0.126-0.089c-0.043-0.029-0.078-0.067-0.127-0.09l-2.345-1.095l1.6-3.999H27c2.757,0,5-2.243,5-5v7c0,2.457,1.786,4.495,4.126,4.912L36.07,35H34c-0.763,0-1.447,0.424-1.788,1.105c-0.342,0.682-0.27,1.484,0.188,2.094l1.6,2.134v0.292l-5.204,9.757l-0.92-0.92c0.142-0.27,0.166-0.594,0.031-0.884l-4.312-9.239c-0.805-1.725-2.311-3.033-4.13-3.59c-1.82-0.556-3.799-0.313-5.431,0.665c-2.995,1.797-4.118,5.653-2.557,8.779l5.628,11.255c0.134,0.268,0.381,0.462,0.673,0.528C17.853,56.992,17.926,57,18,57c0.221,0,0.437-0.073,0.614-0.211l7.74-6.02l1.458,1.458l-0.695,1.303c-0.26,0.487-0.075,1.093,0.412,1.354c0.49,0.257,1.093,0.073,1.354-0.412l7-13.125C35.96,41.201,36,41.039,36,40.875V40c0-0.217-0.07-0.427-0.2-0.6L34,37h2.625c0.345,0,0.665-0.178,0.848-0.47l3.302-5.282l1.324,3.531c0.506,1.347,0.37,2.828-0.37,4.063l-1.614,2.694L30.24,60.387c-0.19,0.363-0.508,0.479-0.681,0.515c-0.292,0.061-0.596-0.011-0.829-0.198l-6.105-4.885c-0.432-0.345-1.06-0.272-1.406,0.156c-0.345,0.432-0.274,1.061,0.156,1.406l6.105,4.885c0.538,0.43,1.196,0.657,1.87,0.657c0.206,0,0.413-0.021,0.619-0.064c0.873-0.183,1.612-0.74,2.03-1.527V63c0,0.553,0.447,1,1,1s1-0.447,1-1v-5c0-0.124-0.029-0.239-0.07-0.348l0.024-0.047L36,60.333V63c0,0.553,0.447,1,1,1h6c0.553,0,1-0.447,1-1s-0.447-1-1-1h-5v-2c0-0.217-0.07-0.427-0.2-0.6l-2.818-3.757l6.876-13.128L43.366,40H49c0.032,0,0.059-0.015,0.091-0.018C49.152,39.984,49.21,40,49.271,40c1.168,0,2.23,0.62,2.811,1.605C52.03,41.726,52,41.859,52,42v2.008c-1.298-0.9-2.909-1.247-4.464-0.934c-3.149,0.63-5.2,3.705-4.57,6.855c0.002,0.009,0.004,0.019,0.006,0.028l3.054,13.268C46.13,63.679,46.534,64,47,64h8c0.283,0,0.553-0.12,0.742-0.33c0.19-0.21,0.281-0.491,0.253-0.772l-1.513-14.639c-0.063-0.687-0.253-1.348-0.543-1.96C53.97,46.203,54,46.106,54,46v-0.215c1.001,2.272,2,4.808,2,6.215c0,0.449,0.3,0.844,0.733,0.964c0.428,0.117,0.893-0.063,1.124-0.449L60,48.943l2.143,3.571C62.326,52.821,62.655,53,63,53c0.089,0,0.179-0.012,0.267-0.036C63.7,52.844,64,52.449,64,52v-9.772C64,39.896,62.104,38,59.772,38z M10.906,31.245C10.39,31.177,10,30.731,10,30.21c0-0.364,0.177-0.686,0.483-0.881c0.174-0.11,0.365-0.166,0.559-0.166c0.149,0,0.301,0.033,0.444,0.101l6.177,2.883L10.906,31.245z M18.349,54.462l-5.082-10.164c-1.098-2.196-0.309-4.906,1.797-6.17c1.146-0.688,2.535-0.859,3.816-0.467c1.278,0.391,2.337,1.311,2.902,2.522l3.975,8.517L18.349,54.462z M40.975,29.257c-0.763-0.075-1.489,0.279-1.896,0.93l-1.794,2.871C37.193,33.03,37.101,33,37,33c-1.654,0-3-1.346-3-3v-8c0-0.104,0.002-0.209,0.007-0.313C34.103,22.979,35.185,24,36.5,24h3c0.275,0,0.5,0.225,0.5,0.5c0,1.379,1.121,2.5,2.5,2.5h1c0.275,0,0.5,0.225,0.5,0.5v6.667c-0.011-0.03-0.017-0.061-0.028-0.091l-1.324-3.53C42.378,29.827,41.737,29.334,40.975,29.257z M44.386,36.685c0.193,0.481,0.466,0.916,0.785,1.315h-0.967C44.309,37.568,44.369,37.129,44.386,36.685z M47.796,62l-2.872-12.478c-0.195-0.997,0.007-2.012,0.571-2.858c0.567-0.851,1.432-1.43,2.435-1.63c1.063-0.216,2.171,0.038,3.039,0.687c0.869,0.648,1.424,1.64,1.522,2.731L53.892,62H47.796z M62,48.39l-1.143-1.904c-0.361-0.602-1.354-0.602-1.715,0l-1.654,2.758c-0.626-2.046-1.716-4.423-2.653-6.467c-0.277-0.604-0.53-1.156-0.738-1.63C53.26,39.235,51.365,38,49.271,38C47.468,38,46,36.532,46,34.729V27.5c0-1.379-1.121-2.5-2.5-2.5h-1c-0.275,0-0.5-0.225-0.5-0.5c0-1.379-1.121-2.5-2.5-2.5h-3c-0.275,0-0.5-0.225-0.5-0.5v-4.395C37.271,15.807,39.043,15,41,15h2c3.859,0,7,3.141,7,7v5.06c0,0.807,0.229,1.592,0.661,2.271l5.544,8.712C56.985,39.268,58.319,40,59.772,40C61.001,40,62,40.999,62,42.228V48.39z"></path></g></svg>